<svg xmlns="http://www.w3.org/2000/svg" width="256" height="96" viewBox="0 0 256 96" shape-rendering="crispEdges">
  <!-- Frame 1 - Neutral -->
  <g transform="translate(0,0)">
    <rect x="20" y="8" width="24" height="8" fill="#8B4513"/>
    <rect x="16" y="12" width="8" height="16" fill="#8B4513"/>
    <rect x="40" y="12" width="8" height="16" fill="#8B4513"/>
    <rect x="20" y="12" width="24" height="24" fill="#f5d0a9"/>
    <rect x="24" y="20" width="4" height="4" fill="#333"/>
    <rect x="36" y="20" width="4" height="4" fill="#333"/>
    <rect x="28" y="28" width="8" height="2" fill="#d4a574"/>
    <rect x="20" y="36" width="24" height="28" fill="#8b6914"/>
    <rect x="24" y="36" width="16" height="4" fill="#a67c00"/>
    <rect x="12" y="40" width="8" height="20" fill="#f5d0a9"/>
    <rect x="44" y="40" width="8" height="20" fill="#f5d0a9"/>
    <rect x="20" y="64" width="10" height="24" fill="#5c4033"/>
    <rect x="34" y="64" width="10" height="24" fill="#5c4033"/>
    <rect x="20" y="56" width="24" height="4" fill="#3d2817"/>
  </g>
  <!-- Frame 2 - Up -->
  <g transform="translate(64,0)">
    <rect x="20" y="6" width="24" height="8" fill="#8B4513"/>
    <rect x="16" y="10" width="8" height="16" fill="#8B4513"/>
    <rect x="40" y="10" width="8" height="16" fill="#8B4513"/>
    <rect x="20" y="10" width="24" height="24" fill="#f5d0a9"/>
    <rect x="24" y="18" width="4" height="4" fill="#333"/>
    <rect x="36" y="18" width="4" height="4" fill="#333"/>
    <rect x="28" y="26" width="8" height="2" fill="#d4a574"/>
    <rect x="20" y="34" width="24" height="30" fill="#8b6914"/>
    <rect x="24" y="34" width="16" height="4" fill="#a67c00"/>
    <rect x="12" y="38" width="8" height="20" fill="#f5d0a9"/>
    <rect x="44" y="38" width="8" height="20" fill="#f5d0a9"/>
    <rect x="20" y="64" width="10" height="24" fill="#5c4033"/>
    <rect x="34" y="64" width="10" height="24" fill="#5c4033"/>
    <rect x="20" y="56" width="24" height="4" fill="#3d2817"/>
  </g>
  <!-- Frame 3 - Neutral -->
  <g transform="translate(128,0)">
    <rect x="20" y="8" width="24" height="8" fill="#8B4513"/>
    <rect x="16" y="12" width="8" height="16" fill="#8B4513"/>
    <rect x="40" y="12" width="8" height="16" fill="#8B4513"/>
    <rect x="20" y="12" width="24" height="24" fill="#f5d0a9"/>
    <rect x="24" y="20" width="4" height="4" fill="#333"/>
    <rect x="36" y="20" width="4" height="4" fill="#333"/>
    <rect x="28" y="28" width="8" height="2" fill="#d4a574"/>
    <rect x="20" y="36" width="24" height="28" fill="#8b6914"/>
    <rect x="24" y="36" width="16" height="4" fill="#a67c00"/>
    <rect x="12" y="40" width="8" height="20" fill="#f5d0a9"/>
    <rect x="44" y="40" width="8" height="20" fill="#f5d0a9"/>
    <rect x="20" y="64" width="10" height="24" fill="#5c4033"/>
    <rect x="34" y="64" width="10" height="24" fill="#5c4033"/>
    <rect x="20" y="56" width="24" height="4" fill="#3d2817"/>
  </g>
  <!-- Frame 4 - Down -->
  <g transform="translate(192,0)">
    <rect x="20" y="10" width="24" height="8" fill="#8B4513"/>
    <rect x="16" y="14" width="8" height="16" fill="#8B4513"/>
    <rect x="40" y="14" width="8" height="16" fill="#8B4513"/>
    <rect x="20" y="14" width="24" height="24" fill="#f5d0a9"/>
    <rect x="24" y="22" width="4" height="4" fill="#333"/>
    <rect x="36" y="22" width="4" height="4" fill="#333"/>
    <rect x="28" y="30" width="8" height="2" fill="#d4a574"/>
    <rect x="20" y="38" width="24" height="26" fill="#8b6914"/>
    <rect x="24" y="38" width="16" height="4" fill="#a67c00"/>
    <rect x="12" y="42" width="8" height="18" fill="#f5d0a9"/>
    <rect x="44" y="42" width="8" height="18" fill="#f5d0a9"/>
    <rect x="20" y="64" width="10" height="24" fill="#5c4033"/>
    <rect x="34" y="64" width="10" height="24" fill="#5c4033"/>
    <rect x="20" y="56" width="24" height="4" fill="#3d2817"/>
  </g>
</svg>
